<?xml version="1.0" encoding="utf-8"?>
<!-- Generator: Adobe Illustrator 27.5.0, SVG Export Plug-In . SVG Version: 6.00 Build 0)  -->
<svg version="1.1" id="Layer_1" xmlns="http://www.w3.org/2000/svg" xmlns:xlink="http://www.w3.org/1999/xlink" x="0px" y="0px"
	 viewBox="0 0 4000 4000" style="enable-background:new 0 0 4000 4000;" xml:space="preserve">
<g>
	<rect style="fill:#C4C4FF;" width="4000" height="4000"/>
	<g>
		<g>
			<g>
				<g>
					<path style="fill:#FFFFFF;" d="M2100.966,1625.001c0,0-334.131-191.513-419.385-133.109
						c-173.496,118.855-347.616,487.168-323.789,598.383c28.993,135.327,408.71,316.615,408.71,316.615L2100.966,1625.001z"/>
				</g>
				<g>
					<path style="fill:#FFFFFF;" d="M1766.498,2406.885c0,0-379.719-181.286-408.689-316.609
						c-8.757-40.869,9.24-116.512,44.085-201.706c59.98-146.564,169.97-321.493,279.685-396.673
						c85.261-58.406,419.397,133.118,419.397,133.118l-213.21,498.4L1766.498,2406.885z"/>
				</g>
				<g>
					<path style="fill:#FFFFFF;" d="M1766.498,2406.885c0,0-379.719-181.286-408.689-316.609
						c-8.757-40.869,9.24-116.512,44.085-201.706c59.98-146.564,169.97-321.493,279.685-396.673
						c19.97-13.705,53.628-13.636,93.462-5.557c130.087,26.417,325.935,138.675,325.935,138.675l-19.947,46.642l-193.264,451.759
						L1766.498,2406.885z"/>
				</g>
				<g>
					<path style="fill:#D3E4EF;" d="M2081.029,1671.657c-168.863-62.96-261.189-138.639-305.989-185.316
						c130.087,26.417,325.935,138.675,325.935,138.675L2081.029,1671.657z"/>
				</g>
				<g>
					<path style="fill:#D3E4EF;" d="M1766.498,2406.885c0,0-379.719-181.286-408.689-316.609
						c-8.757-40.869,9.24-116.512,44.085-201.706l485.872,234.845L1766.498,2406.885z"/>
				</g>
				<g>
					<path style="fill:#371A45;" d="M1766.501,2421.538c-2.163,0-4.321-0.479-6.313-1.426
						c-15.767-7.529-386.568-186.016-416.719-326.772c-12.217-57.021,22.793-177.175,89.199-306.099
						c72.119-140.022,159.829-252.078,240.635-307.434c90.244-61.829,399.937,112.417,434.951,132.485
						c6.45,3.696,9.106,11.638,6.182,18.472l-334.468,781.887c-1.567,3.667-4.565,6.538-8.296,7.944
						C1770.002,2421.226,1768.249,2421.538,1766.501,2421.538z M1726.628,1495.354c-15.518,0-28.076,2.671-36.763,8.623
						c-169.771,116.299-339.746,480.542-317.744,583.225c21.601,100.845,274.604,244.414,386.953,299.795l323.272-755.713
						C1974.933,1571.018,1809.147,1495.354,1726.628,1495.354z"/>
				</g>
				<g>
					<path style="fill:#FFFFFF;" d="M1442.627,1762.074c28.807-4.918,156.757,67.722,156.757,67.722
						c13.477,9.206,19.038,26.33,13.511,41.687c-20.226,56.202-73.633,183.449-145.72,193.988
						c-59.851,8.75-109.962-38.39-124.607-86.447c-11.426-37.496,7.962-84.483,31.632-129.006
						C1399.846,1801.775,1420.145,1765.912,1442.627,1762.074z"/>
				</g>
				<g>
					<path style="fill:#FFFFFF;" d="M1374.185,1850.026c-12.228,22.944-23.257,46.576-29.511,69.209
						c-5.939,21.238-7.637,41.629-2.102,59.784c14.641,48.054,64.746,95.203,124.604,86.441
						c56.542-8.264,101.635-88.394,128.179-149.633c0.007-0.06,0.041-0.087,0.041-0.087c7.28-16.788,13.15-32.187,17.506-44.259
						c5.529-15.347-0.032-32.5-13.523-41.681c0,0-127.94-72.666-156.776-67.731
						C1420.166,1765.918,1399.829,1801.778,1374.185,1850.026z"/>
				</g>
				<g>
					<path style="fill:#D3E4EF;" d="M1344.674,1919.235c-5.939,21.238-7.637,41.629-2.102,59.784
						c14.641,48.054,64.746,95.203,124.604,86.441c56.542-8.264,101.635-88.394,128.179-149.633
						c-1.628,2.217-42.092,58.489-58.792,42.844c-13.162-12.28-4.504-48.278-4.012-50.414
						c-2.591,3.689-81.624,115.388-142.173,72.417C1363.14,1961.368,1350.119,1939.481,1344.674,1919.235z"/>
				</g>
				<g>
					<path style="fill:#371A45;" d="M1452.873,2081.162c-59.507,0.005-108.901-47.28-124.316-97.869
						c-13.423-44.045,9.004-95.564,32.71-140.154c29.839-56.135,50.044-90.576,78.896-95.505l0,0
						c31.504-5.361,135.371,51.775,166.45,69.424c0.351,0.2,0.698,0.413,1.03,0.642c18.989,12.969,26.816,37.124,19.038,58.745
						c-25.615,71.16-80.122,192.226-157.388,203.52C1463.752,2080.776,1458.268,2081.162,1452.873,2081.162z M1445.089,1776.516
						c-16.748,2.864-40.562,47.666-57.954,80.378c-19.673,36.999-40.923,83.833-30.552,117.859
						c13.203,43.328,57.388,83.655,108.472,76.218c44.722-6.533,94.839-75.488,134.058-184.448
						c3.198-8.894,0.093-18.816-7.559-24.324C1532.399,1808.667,1459.577,1774.299,1445.089,1776.516z M1442.629,1762.075h0.049
						H1442.629z"/>
				</g>
				<g>
					<path style="fill:#371A45;" d="M1377.224,2013.123c30.196,23.896,74.155-4.847,97.685-28.853
						c22.07-22.441,40.55-49.895,56.287-77.54c5.083-9.467,10.039-19.118,13.117-29.503c-4.141,21.4-13.77,41.4-23.344,60.877
						c-9.917,19.361-20.857,38.612-34.908,56.094c-27.253,36.556-84.814,73.682-128.846,40.403
						C1341.388,2020.973,1362.506,1998.286,1377.224,2013.123L1377.224,2013.123z"/>
				</g>
				<g>
					<path style="fill:#371A45;" d="M1872.004,1606.807c-41.57-40.622-91.699-72.79-144.685-96.751
						c14.306,3.878,28.647,8.019,42.688,13.115c43.065,15.451,83.611,35.059,121.355,61.641c6.582,4.769,8.052,13.969,3.283,20.55
						C1889.371,1612.816,1878.183,1613.504,1872.004,1606.807L1872.004,1606.807z"/>
				</g>
			</g>
			<g>
				<g>
					
						<linearGradient id="SVGID_1_" gradientUnits="userSpaceOnUse" x1="3604.2173" y1="3535.5605" x2="3803.7993" y2="3139.1311" gradientTransform="matrix(1.0007 0.1019 -0.1628 1.0949 -1830.7255 -510.1314)">
						<stop  offset="0" style="stop-color:#EB201A"/>
						<stop  offset="0.9972" style="stop-color:#EF7D30"/>
					</linearGradient>
					<path style="fill:url(#SVGID_1_);" d="M1630.196,3289.569c3.685,119.503-69.714,212.426-179.664,238.189
						c-52.538,17.095-112.307,37.056-171.463,92.734c-7.842,7.381-19.707-0.47-16.187-10.71
						c26.552-77.25,20.573-140.713,14.909-196.316c-20.929-112.474,33.719-218.02,143.481-262.542
						c15.7-6.368,32.76-7.764,48.902-3.901c50.382,12.056,112.841,54.152,143.816,95.516
						C1624.04,3255.958,1629.667,3272.4,1630.196,3289.569z"/>
					<g>
						<path style="fill:#FFCF02;" d="M1334.568,3514.634l-0.706,0.81c98.782-183.775-19.679-336.134,156.434-360.225
							c41.076,11.374,75.002,38.359,107.011,69.527C1646.316,3397.794,1460.975,3349.146,1334.568,3514.634z"/>
					</g>
					<g>
						<path style="fill:#371A45;" d="M1272.096,3638.071c-4.556,0-9.126-1.304-13.237-3.96c-9.707-6.27-13.662-17.964-9.834-29.097
							c25.786-75.015,19.712-135.815,14.248-189.468c-22.143-120.459,39.082-232.202,152.49-278.203
							c18.662-7.568,38.667-9.155,57.817-4.575c53.145,12.72,118.55,56.133,152.139,100.986
							c11.88,15.864,18.491,35.005,19.121,55.361l0,0c3.809,123.403-72.661,224.902-190.352,252.764
							c-50.649,16.479-107.993,35.273-165.376,89.282C1284.259,3635.732,1278.195,3638.071,1272.096,3638.071z M1451.896,3159.521
							c-8.457,0-16.953,1.67-25.117,4.98c-101.904,41.333-154.732,138.008-134.585,246.284c0.073,0.396,0.132,0.796,0.171,1.196
							c5.132,50.332,11.426,112.134-10.405,186.216c58.154-49.922,116.509-68.906,164.038-84.375
							c0.396-0.127,0.791-0.239,1.191-0.332c105.698-24.766,171.787-112.48,168.364-223.467
							c-0.444-14.302-5.039-27.686-13.291-38.701c-29.483-39.37-88.999-78.926-135.498-90.049
							C1461.872,3160.103,1456.891,3159.521,1451.896,3159.521z"/>
					</g>
				</g>
				<g>
					<path style="fill:#E52E2E;" d="M1656.844,3289.843l-295.832-165.697c-6.565-3.677-8.906-11.979-5.229-18.544l69.721-124.478
						l319.604,179.011l-69.721,124.478C1671.712,3291.179,1663.409,3293.52,1656.844,3289.843z"/>
				</g>
				<g>
					<path style="fill:#371A45;" d="M1642.463,3286.592c-13.979,0-27.793-3.574-40.322-10.596l-200.742-112.437
						c-19.292-10.801-33.218-28.472-39.219-49.751c-6.001-21.279-3.354-43.623,7.451-62.91l43.091-76.934
						c1.899-3.394,5.068-5.889,8.808-6.943c3.74-1.06,7.744-0.576,11.133,1.318l319.604,179.014
						c7.06,3.955,9.58,12.881,5.625,19.941l-43.091,76.934c-10.801,19.292-28.472,33.218-49.751,39.219
						C1657.594,3285.547,1650.002,3286.592,1642.463,3286.592z M1616.457,3250.43c12.466,6.978,26.899,8.687,40.64,4.81
						c13.745-3.872,25.161-12.871,32.139-25.327l35.928-64.15l-294.033-164.692l-35.933,64.146
						c-14.404,25.723-5.2,58.369,20.518,72.778L1616.457,3250.43z"/>
				</g>
				<g>
					<g>
						<path style="fill:#9DA9B9;" d="M2336.72,3374.739c0,77.416-34.435,146.138-87.673,189.364
							c-36.779,29.843-82.544,47.524-132.12,47.524c-101.642,0-187.215-74.388-212.272-175.444
							c-4.933-19.586-7.522-40.198-7.522-61.444c0-34.288,6.74-66.817,18.902-96.221c34.239-82.886,111.313-140.668,200.891-140.668
							c40.54,0,78.54,11.82,111.118,32.48C2293.055,3211.456,2336.72,3287.603,2336.72,3374.739z"/>
					</g>
					<g>
						<path style="fill:#808FA0;" d="M2336.72,3374.739c0,77.416-34.435,146.138-87.673,189.364
							c-8.694-0.049-17.388-0.83-25.936-2.735c-41.907-9.134-76.439-45.863-82.935-88.259c-3.37-21.833,0.098-44.203-2.833-66.085
							c-6.105-45.326-40.002-83.766-81.03-104.036c-40.979-20.319-88.26-24.519-133.977-21.735l-6.301-2.735
							c34.239-82.886,111.313-140.668,200.891-140.668c40.54,0,78.54,11.82,111.118,32.48
							C2293.055,3211.456,2336.72,3287.603,2336.72,3374.739z"/>
					</g>
					<g>
						<path style="fill:#371A45;" d="M2116.926,3627.183c-106.533,0-200.034-77.002-227.373-187.256
							c-5.288-21.001-7.974-42.954-7.974-65.19c0-139.199,105.576-252.441,235.347-252.441c42.148,0,83.457,12.065,119.453,34.897
							c71.484,45.22,115.898,128.584,115.898,217.544C2352.277,3513.936,2246.701,3627.183,2116.926,3627.183z M2116.926,3153.408
							c-112.612,0-204.233,99.287-204.233,221.328c0,19.678,2.373,39.072,7.051,57.646
							c23.901,96.396,104.98,163.687,197.183,163.687c112.617,0,204.238-99.292,204.238-221.333
							c0-78.394-38.867-151.68-101.436-191.255C2188.708,3163.804,2153.166,3153.408,2116.926,3153.408z"/>
					</g>
					<g>
						<path style="fill:#371A45;" d="M2068.083,3557.915c-49.927,0-98.281-21.279-136.157-59.917
							c-31.841-32.476-49.404-76.016-49.458-122.607v-0.654c0-138.706,105.176-251.553,234.458-251.553h1.216
							c77.383,0.454,142.871,56.362,155.806,132.944c2.769,16.421,4.175,33.32,4.175,50.229
							C2278.122,3445.068,2183.898,3557.915,2068.083,3557.915z M2118.053,3152.52h-1.128
							c-113.106,0-205.122,99.688-205.122,222.217v0.64c0.044,38.857,14.629,75.117,41.069,102.085
							c32.315,32.964,73.228,51.118,115.21,51.118c99.639,0,180.703-99.688,180.703-222.222c0-15.278-1.265-30.537-3.765-45.347
							C2234.465,3198.516,2181.066,3152.891,2118.053,3152.52z"/>
					</g>
					<g>
						
							<ellipse transform="matrix(0.5 -0.866 0.866 0.5 -1838.5032 3484.2815)" style="fill:#371A45;" cx="2098.224" cy="3334.331" rx="97.575" ry="76.697"/>
					</g>
					<g>
						<path style="fill:#FF4545;" d="M2354.646,3496.26c-3.077,3.077-6.203,6.056-9.475,9.036
							c-16.997,15.532-42.005,18.853-62.226,7.961c-127.48-68.624-75.56-193.076-166.017-233.762
							c-93.437-40.051-203.041-27.401-207.095-87.527c-0.732-10.501,2.296-20.905,7.424-30.087
							c77.563-140.179,199.084-166.896,305.22-130.85C2398.311,3090.716,2532.044,3322.525,2354.646,3496.26z"/>
					</g>
					<g>
						<path style="fill:#E52E2E;" d="M2354.646,3496.26c-3.077,3.077-6.203,6.056-9.475,9.036
							c-16.997,15.532-42.005,18.853-62.226,7.961c-127.48-68.624-75.56-193.076-166.017-233.762
							c-93.437-40.051-203.041-27.401-207.095-87.527c-0.732-10.501,2.296-20.905,7.424-30.087
							c77.563-140.179,199.084-166.896,305.22-130.85l-7.375,5.275c-67.794-3.565-134.27,47.964-147.75,114.488
							c-3.956,19.635-3.077,42.054,10.159,57.097c16.363,18.609,44.691,19.342,67.208,29.648
							c32.481,14.848,51.432,49.087,62.861,82.887c11.429,33.799,17.779,69.797,35.558,100.714
							C2266.289,3461.386,2308.733,3489.862,2354.646,3496.26z"/>
					</g>
					<g style="opacity:0.5;">
						<path style="fill:#FFFFFF;" d="M2222.477,3031.03c-70.152-23.825-147.016-20.195-213.476,25.459
							c60.448-31.441,127.345-31.764,189.054-10.806c175.835,59.686,309.567,291.495,132.169,465.23
							c-2.251,2.252-4.592,4.427-6.934,6.613c7.972-2.281,15.492-6.392,21.88-12.23c3.273-2.979,6.399-5.959,9.475-9.036
							C2532.044,3322.525,2398.311,3090.716,2222.477,3031.03z"/>
					</g>
					<g>
						<path style="fill:#371A45;" d="M2308.322,3534.282c-11.074,0-22.188-2.666-32.339-8.135
							c-73.931-39.8-92.363-98.804-107.178-146.216c-12.393-39.673-22.183-71.006-57.891-87.075
							c-33.154-14.204-69.561-21.689-101.68-28.286c-59.409-12.212-110.718-22.754-114.028-71.636
							c-0.85-12.554,2.334-25.747,9.204-38.164c59.482-107.515,150.581-161.499,256.655-151.841
							c120.898,10.947,237.637,105.034,277.578,223.711c35.41,105.2,5.723,208.018-83.589,289.507
							C2341.969,3528.086,2325.197,3534.282,2308.322,3534.282z M2137.604,3031.162c-84.917,0-158.037,48.291-207.549,137.798l0,0
							c-4.136,7.476-6.074,15.083-5.61,21.997c1.719,25.405,33.921,33.242,90.689,44.907c33.481,6.88,71.436,14.678,107.563,30.161
							c47.969,21.582,61.245,64.072,74.082,105.166c14.595,46.714,29.688,95.015,93.096,129.155
							c14.673,7.9,32.934,5.552,45.425-5.85c80.21-73.184,107.046-164.99,75.571-258.511
							c-36.411-108.179-142.578-193.921-252.446-203.872C2151.413,3031.479,2144.465,3031.162,2137.604,3031.162z
							 M1917.233,3161.865h0.049H1917.233z"/>
					</g>
				</g>
				<g>
					<path style="fill:#B3C2CE;" d="M1193.794,2659.188c262.124,143.273,524.248,286.546,786.372,429.818
						c35.818,74.893,71.636,149.785,107.455,224.678c-294.049-156.935-588.098-313.869-882.147-470.804L1193.794,2659.188z"/>
				</g>
				<g>
					<path style="fill:#371A45;" d="M2097.599,3337.642c-2.368,0-4.751-0.571-6.938-1.748l-892.129-480.107
						c-4.458-2.397-7.358-6.924-7.681-11.978l-11.68-183.691c-0.337-5.332,2.256-10.43,6.768-13.296
						c4.517-2.866,10.234-3.052,14.917-0.469l781.484,429.819c2.529,1.387,4.59,3.491,5.923,6.05l122.324,233.979
						c2.983,5.703,1.895,12.686-2.686,17.212C2105.09,3336.191,2101.369,3337.642,2097.599,3337.642z M1219.582,2833.833
						l842.91,453.618l-98.15-187.734l-754.229-414.829L1219.582,2833.833z"/>
				</g>
				<g>
					<g>
						<path style="fill:#FFFFFF;" d="M2998.077,2297.561c-16.76-7.893-32.711-17.374-48.004-27.827
							c-188.181-128.574-357.218-265.714-528.135-306.217l-82.275-144.987l-83.898-147.888l67.624-107.932
							c259.35,58.003,523.057,191.136,743.277,397.08c35.627,33.316,65.91,72.218,88.302,115.551
							c37.525,72.739,44.583,140.27,26.061,186.04l-0.029,0.039C3157.549,2319.281,3093.267,2342.406,2998.077,2297.561z"/>
					</g>
					<g>
						<path style="fill:#D3E4EF;" d="M2998.077,2297.561c-16.76-7.893-32.711-17.374-48.004-27.827
							c-188.181-128.574-357.218-265.714-528.135-306.217l-82.275-144.987c18.783-10.048,40.171-15.072,59.665-24.109l22.152-10.169
							c21.028,39.593,61.895,63.845,100.66,86.422c105.015,61.216,209.175,124.412,305.983,197.966
							c39.542,30.074,78.098,61.972,121.697,85.814c8.482,4.629,17.383,9.021,26.997,10.479c7.862,1.195,15.935,0.298,23.826,1.454
							c15.363,2.305,28.443,11.972,41.167,20.89c12.733,8.986,26.735,17.815,42.298,17.96c13.433,0.15,27.632-9.034,30.367-21.529
							c-1.387,21.022-1.565,42.877,8.702,61.033c11.306,19.957,40.332,31.388,57.822,16.68
							C3157.549,2319.281,3093.267,2342.406,2998.077,2297.561z"/>
					</g>
					<g>
						<path style="fill:#371A45;" d="M3088.942,2335.557c-29.106,0-62.036-8.228-97.104-24.746
							c-16.484-7.769-32.847-17.246-50.02-28.975c-34.668-23.687-68.955-47.852-102.109-71.221
							c-146.26-103.076-284.409-200.435-421.147-232.839c-3.965-0.94-7.354-3.484-9.365-7.026l-166.177-292.876
							c-2.656-4.685-2.534-10.449,0.327-15.012l67.627-107.932c3.296-5.259,9.575-7.876,15.615-6.519
							c272.608,60.972,538.99,203.272,750.078,400.686c37.969,35.51,68.687,75.728,91.304,119.526
							c48.652,94.209,49.985,186.299,3.398,234.619C3150.632,2324.746,3122.302,2335.557,3088.942,2335.557z M2431.559,1950.781
							c140.108,35.085,278.57,132.666,425.029,235.879c33.072,23.311,67.271,47.412,101.763,70.977
							c15.874,10.845,30.913,19.565,45.977,26.66c64.116,30.21,115.947,29.712,145.942-1.396
							c37.729-39.131,34.458-117.964-8.335-200.83c-21.079-40.815-49.775-78.354-85.288-111.57
							c-204.722-191.46-462.3-330.12-726.362-391.196l-57.461,91.709L2431.559,1950.781z"/>
					</g>
					<g>
						<path style="fill:#371A45;" d="M2683.713,2100.933c-6.406,0-12.285-4.233-14.102-10.708
							c-2.183-7.793,2.368-15.879,10.161-18.062c91.758-25.698,157.451-172.075,132.632-295.515
							c-1.597-7.932,3.545-15.659,11.475-17.253c7.969-1.585,15.654,3.542,17.256,11.477
							c28.037,139.429-46.543,299.568-153.462,329.514C2686.354,2100.757,2685.021,2100.933,2683.713,2100.933z"/>
					</g>
					<g>
						<path style="fill:#371A45;" d="M3091.895,2076.039c29.514,35.91,50.221,113.06,13.136,151.297
							c-10.129,9.886-26.242,13.39-39.938,10.395c-23.762-5.328-40.687-19.53-56.824-35.377c0,0,20.738-0.349,20.738-0.349
							c-19.004,14.116-46.079,18.621-67.068,8.78c20.315-0.825,37.242-11.811,45.984-29.135c3.311-6.345,12.027-7.943,17.398-3.244
							c14.817,12.653,31.359,28.766,50.439,31.331c12.229,0.508,17.986-9.511,22.129-21.675
							C3108.249,2151.464,3100.898,2113.046,3091.895,2076.039L3091.895,2076.039z"/>
					</g>
				</g>
				<g>
					<g>
						<path style="fill:#FFFFFF;" d="M2069.659,3034.985c14.461,48.915,5.19,86.364-16.182,109.526
							c-12.557,13.697-29.323,22.384-47.892,25.47c-14.993,2.515-30.348,0.627-44.77-4.175
							c-73.958-24.582-153.97-76.579-216.805-135.694c-43.812-41.236-53.228-107.158-23.08-159.229
							c52.481-90.604,130.823-182.258,176.872-311.765c3.547-9.853,6.854-19.906,9.97-30.206c-2.318,1.229-4.637,2.506-6.956,3.832
							c-38.729,21.189-74.369,44.486-107.306,69.59c-73.003,55.502-132.778,119.742-183.573,189.908
							c-4.089,227.621-230.626,111.536-346.641-5.738c-42.414-42.92-49.524-109.387-17.679-160.695
							c67.414-108.801,200.764-246.755,320.132-427.655c7.531-11.344,13.855-23.444,19.403-35.899
							c53.968-121.695,122.956-239.213,203.66-353.588l31.67-131.328l135.013-173.438l439.253,22.545l159.489,95.682l19.593,269.032
							C2552.59,2287.545,2342.648,2664.518,2069.659,3034.985z"/>
					</g>
					<g>
						<path style="fill:#D3E4EF;" d="M1633.889,2078.414c30.541-28.278,70.977-44.062,111.964-51.297
							c40.988-7.235,82.917-6.497,124.526-5.455c-29.489-0.477-58.755-10.341-82.516-27.812
							c-20.526-15.092-37.373-35.859-60.854-45.747c-1.535-0.646-3.219-1.252-4.832-0.839c-1.477,0.379-2.604,1.539-3.65,2.649
							c-16.094,17.092-32.187,34.185-48.28,51.277c-17.726,18.826-36.726,41.201-33.971,66.911"/>
					</g>
					<g>
						<path style="fill:#D3E4EF;" d="M1728.222,2354.271c21.103,54.963,29.837,99.205,33.833,128.059
							c3.142,22.689,4.158,41.667-1.14,63.486c-3.866,15.918-9.557,27.031-23.578,51.762
							c-11.731,20.693-27.255,47.323-46.403,78.231c67.645-52.55,139.418-99.783,214.44-141.122
							c-20.666-10.431-33.284-22.01-41.116-30.981c-4.671-5.35-9.669-12.098-19.183-19.885
							c-11.425-9.351-21.651-13.89-24.154-15.089c-13.001-6.228-35.907-26.898-79.379-89.85L1728.222,2354.271z"/>
					</g>
					<g>
						<path style="fill:#D3E4EF;" d="M2126.74,2576.812L2126.74,2576.812c-142.687,64.176-175.887,96.545-175.888,96.545
							c-13.371,13.036-32.924,36.085-62.934,87.827c-27.172,46.848-54.395,93.793-75.709,143.58
							c-11.219,26.227-20.878,55.413-13.263,82.906c6.973,25.186,27.099,44.257,46.323,61.896
							c30.133,27.653,60.701,55.559,96.797,74.819c33.967,18.148,73.945,28.05,111.41,20.125
							c-12.557,13.697-29.323,22.384-47.892,25.47c-14.993,2.515-30.348,0.627-44.77-4.175
							c-73.958-24.582-153.97-76.579-216.805-135.694c-43.812-41.236-53.228-107.158-23.08-159.229
							c52.481-90.604,130.823-182.258,176.872-311.765c6.684-7.745,13.37-15.49,20.055-23.234
							c37.412,5.85,74.825,11.651,112.189,17.501c0.049,0.001,0.049,0.001,0.049,0.001c30.155,4.694,60.309,9.388,90.463,14.082
							c4.726,0.72,9.402,1.488,14.127,2.208C2129.543,2574.294,2126.74,2576.812,2126.74,2576.812z"/>
					</g>
					<g>
						<path style="fill:#371A45;" d="M2573.828,1891.16c1.474,26.55,2.13,53.285,1.275,79.877
							c-1.376,22.429-3.778,47.211-5.981,69.712c-6.194,41.449-15.057,86.536-25.729,127.322
							c-55.22,219.62-159.109,424.49-279.808,614.892c-54.853,86.926-120.232,178.288-182.129,260.715
							c0,0,2.253-12.853,2.253-12.853c10.047,33.508,11.776,73.966-6.677,106.063c-18.588,33.601-58.989,52.964-96.689,48.194
							c-23.31-2.83-44.501-12.755-65.745-21.662c-60.881-27.539-115.94-65.207-165.803-109.147
							c-27.517-22.456-49.652-52.436-56.727-87.798c-7.8-35.25-1.288-73.405,17.036-104.325
							c22.287-38.069,46.953-73.885,70.593-109.911c23.579-36.031,46.335-72.291,65.801-110.112
							c19.47-37.788,35.942-76.964,48.247-117.444l20.967,17.136c-116.327,62.036-216.082,152.021-292.905,259.018
							c0,0,2.78-8.331,2.78-8.331c-1.266,36.559-6.088,74.387-28.83,105.526c-82.31,103.706-262.289-23.244-331.972-90.523
							c-47.754-41.395-65.849-106.977-42.27-166.242c12.162-28.518,31.703-53.333,49.361-78.507
							c91.563-122.663,193.316-236.957,277.378-364.846c9.662-13.875,17.086-26.924,23.761-42.201
							c55.708-125.425,126.008-243.76,204.827-355.493l-2.273,5.012l31.67-131.327c0.498-2.069,1.462-3.984,2.683-5.566
							l135.012-173.438c3.032-3.896,7.729-5.837,12.314-5.634l439.25,22.545c2.463,0.127,4.807,0.89,6.79,2.069l159.487,95.681
							c6.941,4.163,9.192,13.164,5.029,20.104c-4.165,6.938-13.164,9.189-20.105,5.027l-159.487-95.681l6.785,2.068l-439.25-22.545
							l12.312-5.632l-135.012,173.438l2.681-5.565l-31.667,131.327c-0.444,1.838-1.25,3.553-2.273,5.015
							c-84.214,117.394-154.188,243.566-213.933,374.535c-68.369,108.622-150.808,207.994-230.463,308.024
							c-34.074,43.032-67.921,85.837-97.205,132.102c-25.057,38.277-24.746,90.782,1.383,128.416
							c16.677,22.732,39.415,40.788,60.887,58.887c92.199,74.21,271.868,167.485,273.833-27.101
							c0.083-3.093,1.063-5.992,2.784-8.331c79.092-110.252,182.775-203.718,302.764-267.641
							c11.19-6.369,24.939,5.075,20.966,17.136c-12.871,42.376-30.1,83.308-50.273,122.448
							c-39.547,77.559-93.24,147.175-137.088,221.285c-31.905,54.578-15.321,117.675,33.808,155.474
							c55.377,48.638,118.254,90.51,187.416,116.114c45.627,20.516,96.354-0.483,104.951-51.772c2.837-18.489,0.662-38.327-5-57.534
							c-1.259-4.558-0.259-9.271,2.249-12.867c50.805-72.151,108.668-154.108,155.476-228.44
							c120.172-187.441,227.129-385.572,291.79-599.276c7.599-22.137,14.475-53.187,20.738-75.699
							c7.45-28.479,12.431-57.56,19.6-86.137c-0.001,0,1.752-9.658,1.752-9.658l3.674-19.307
							C2559.501,1968.989,2564.991,1930.248,2573.828,1891.16L2573.828,1891.16z"/>
					</g>
					<g>
						<path style="fill:#D3E4EF;" d="M1710.39,2233.776c35.822,50.436,97.738,124.217,194.427,187.611
							c129.237,84.735,254.702,107.71,322.205,115.067c-24.64,15.236-68.163,37.239-124.701,39.918
							c-65.48,3.103-114.04-21.342-174.929-51.993c-26.508-13.344-75.945-40.913-127.572-88.464
							c-37.302-34.357-63.329-58.89-79.085-100.881C1705.298,2293.895,1707.284,2256.159,1710.39,2233.776z"/>
					</g>
					<g>
						<g>
							<path style="fill:#FFFFFF;" d="M1923.007,2030.652c-57.01-0.72-130.696-36.494-179.502-64.29
								c-29.273-16.671-38.978-54.211-21.542-83.034l0,0c15.911-26.301,49.15-36.336,76.908-23.128
								c47.147,22.433,118.84,53.758,168.776,62.793"/>
						</g>
						<g>
							<path style="fill:#D3E4EF;" d="M1923.025,2030.65c-57.009-0.72-130.738-36.482-179.525-64.295
								c-29.266-16.644-38.975-54.198-21.541-83.047c3.702-6.125,8.346-11.392,13.699-15.649
								c1.828,18.64,12.37,36.111,29.906,46.113c48.73,27.748,122.302,63.485,179.28,64.277L1923.025,2030.65z"/>
						</g>
						<g>
							<path style="fill:#371A45;" d="M1923.395,2045.303c-0.19,0-0.381,0-0.576,0c-59.424-0.752-134.258-36.416-186.567-66.208
								c-17.598-10.022-30.098-26.34-35.2-45.947c-5.107-19.641-2.134-40.029,8.374-57.405
								c19.902-32.898,61.064-45.273,95.742-28.777c69.395,33.022,128.022,54.902,165.088,61.606
								c7.622,1.379,24.961,8.562,21.421,45.398C1988.122,1990.933,1963.976,2045.303,1923.395,2045.303z M1773.151,1869.019
								c-15.356,0-30.171,7.881-38.647,21.892c-6.387,10.554-8.193,22.935-5.088,34.858c3.091,11.89,10.669,21.785,21.338,27.861
								c69.707,39.695,130.947,61.843,172.437,62.366l0,0c0.059,0,0.117,0.005,0.176,0.005c11.646,0,21.455-14.863,25.147-21.279
								c13.486-23.442,15.864-49.849,13.589-57.864c-50.464-9.79-119.795-39.763-169.521-63.43
								C1786.305,1870.444,1779.679,1869.019,1773.151,1869.019z"/>
						</g>
						<g>
							<path style="fill:#FFFFFF;" d="M2295.752,2187.058c40.455,40.176,117.604,67.694,171.632,83.047
								c32.404,9.208,65.991-10.166,74.343-42.801l0,0c7.621-29.78-8.505-60.529-37.376-71.083
								c-49.038-17.926-121.617-47.139-163.049-76.442"/>
						</g>
						<g>
							<path style="fill:#D3E4EF;" d="M2467.399,2270.105c-54.061-15.342-131.198-42.884-171.651-83.06l22.204-52.315
								c40.483,40.104,117.491,67.55,171.467,82.898c19.422,5.507,39.34,0.732,53.922-11.022c0.656,6.736,0.186,13.755-1.591,20.688
								C2533.377,2259.947,2499.778,2279.329,2467.399,2270.105z"/>
						</g>
						<g>
							<path style="fill:#371A45;" d="M2483.859,2287.075c-6.831,0-13.711-0.952-20.478-2.876
								c-57.896-16.45-135.772-44.858-177.949-86.748l0,0c-29.048-28.843-7.07-84.546,16.929-113.115
								c23.809-28.34,41.084-20.991,47.402-16.519c30.752,21.748,87.437,48.257,159.619,74.639
								c36.069,13.184,56.074,51.226,46.538,88.481c-5.034,19.668-17.495,36.074-35.093,46.187
								C2509.367,2283.716,2496.696,2287.075,2483.859,2287.075z M2335.29,2093.452c-7.314,3.989-24.487,24.185-31.768,50.229
								c-2.002,7.163-5.762,24.717,2.553,32.979h0.005c29.448,29.243,88.154,57.427,165.307,79.346
								c11.817,3.369,24.19,1.836,34.834-4.287c10.684-6.143,18.252-16.104,21.309-28.047c5.786-22.612-6.338-45.693-28.208-53.687
								C2447.594,2151.074,2377.634,2122.603,2335.29,2093.452z"/>
						</g>
						<g>
							<path style="fill:#FFFFFF;" d="M2374.58,2051.968l-72.27,172.235c-13.412,31.964-50.534,47.141-82.462,33.744
								l-317.178-133.09c-31.964-13.412-47.105-50.519-33.693-82.483l72.27-172.235c13.397-31.928,50.482-47.12,82.447-33.708
								l317.178,133.089c25.507,10.703,40.334,36.56,38.42,62.818C2378.793,2038.926,2377.274,2045.546,2374.58,2051.968z"/>
						</g>
						<g>
							<path style="fill:#D3E4EF;" d="M2374.58,2051.968l-72.27,172.235c-13.412,31.964-50.534,47.141-82.462,33.744
								l-317.178-133.09c-31.964-13.412-47.105-50.519-33.693-82.483l24.325-57.97c42.015,53.25,149.211,156.898,220.54,151.942
								c45.064-3.131,70.201-63.036,70.201-63.036s101.939-24.556,101.617,30.617c-0.635,108.698,80.899-55.606,93.633-71.588
								C2378.793,2038.926,2377.274,2045.546,2374.58,2051.968z"/>
						</g>
						<g>
							<path style="fill:#371A45;" d="M2244.113,2277.485c-9.995,0-20.156-1.943-29.937-6.05l-317.183-133.091
								c-19.058-7.998-33.887-22.998-41.753-42.236c-7.871-19.243-7.798-40.337,0.2-59.395l72.276-172.248
								c16.563-39.48,62.158-58.123,101.631-41.55l317.188,133.093c39.473,16.563,58.11,62.151,41.548,101.628l-72.275,172.251
								C2303.351,2259.58,2274.465,2277.485,2244.113,2277.485z M2225.514,2244.414c24.594,10.313,52.959-1.299,63.271-25.864
								l72.275-172.251c10.313-24.575-1.294-52.957-25.864-63.269l-317.188-133.093c-11.841-4.968-24.966-5-36.963-0.098
								c-11.997,4.905-21.338,14.126-26.308,25.964l-72.275,172.248c-10.313,24.575,1.294,52.959,25.869,63.271L2225.514,2244.414z"
								/>
						</g>
						<g>
							
								<ellipse transform="matrix(0.7071 -0.7071 0.7071 0.7071 -826.5504 2193.1816)" style="fill:#22A7F0;" cx="2234.129" cy="2094.325" rx="54.318" ry="54.318"/>
						</g>
						<g style="opacity:0.5;">
							<path style="fill:#FFFFFF;" d="M2284.23,2115.339c-1.774,4.227-4.017,8.114-6.643,11.624
								c3.63-24.02-9.275-48.386-32.71-58.219c-23.435-9.833-49.863-1.972-64.46,17.447c0.665-4.333,1.867-8.656,3.641-12.884
								c11.607-27.662,43.441-40.677,71.102-29.07C2282.822,2055.844,2295.837,2087.677,2284.23,2115.339z"/>
						</g>
						<g>
							<path style="fill:#2585EF;" d="M2284.219,2115.332c-11.616,27.683-43.455,40.671-71.103,29.07
								c-27.647-11.601-40.686-43.42-29.07-71.103c1.946-4.638,4.489-8.899,7.448-12.65c-2.976,23.588,9.92,47.25,32.894,56.89
								c22.974,9.64,48.892,2.264,63.64-16.385C2287.424,2105.894,2286.166,2110.694,2284.219,2115.332z"/>
						</g>
						<g>
							<path style="fill:#371A45;" d="M2234.04,2160.361c-8.506,0-17.144-1.65-25.464-5.142
								c-33.574-14.087-49.428-52.866-35.342-86.445c14.097-33.574,52.871-49.429,86.446-35.342
								c33.579,14.087,49.429,52.866,35.342,86.445C2284.426,2145.132,2259.855,2160.361,2234.04,2160.361z M2234.191,2051.729
								c-16.655,0-32.51,9.824-39.346,26.118c-9.087,21.655,1.138,46.675,22.803,55.762c21.655,9.087,46.675-1.138,55.762-22.803
								c9.087-21.66-1.138-46.675-22.798-55.762C2245.246,2052.793,2239.675,2051.729,2234.191,2051.729z"/>
						</g>
						<g>
							<path style="fill:#371A45;" d="M2031.676,2193.628c-1.89,0-3.813-0.371-5.664-1.147c-7.461-3.13-10.972-11.719-7.842-19.18
								l34.873-83.115c8.657-20.64,7.094-44.502-4.185-63.833c-15.893-27.234-18.096-60.857-5.893-89.936l32.788-78.14
								c3.135-7.466,11.714-10.981,19.18-7.842c7.461,3.13,10.971,11.719,7.842,19.18l-32.788,78.14
								c-8.657,20.64-7.095,44.502,4.184,63.833c15.894,27.236,18.096,60.859,5.894,89.936l-34.873,83.115
								C2042.839,2190.249,2037.399,2193.628,2031.676,2193.628z"/>
						</g>
					</g>
					<g>
						<g>
							<path style="fill:#FFFFFF;" d="M1935.17,1547.502l-97.436,257.16c-8.951,22.408-20.602,42.765-34.605,60.881
								c-98.129,127.106-311.686,147.842-519.249,41.527c-68.315,14.796-129.704,2.995-132.959-27.938
								c-0.708-6.803,1.385-14.581,6.865-23.178c-66.713,9.891-118.324-2.321-146.327-26.175
								c-30.746-26.15-33.055-66.249,4.308-106.564c4.534-4.95,9.703-9.84,15.458-14.769c35.917-30.57,81.453-47.241,128.545-49.961
								c103.134-5.964,217.291,10.742,338.346,21.514c12.632,1.106,25.381-1.547,36.578-7.55
								C1686.171,1591.294,1830.986,1524.918,1935.17,1547.502z"/>
						</g>
						<g>
							<path style="fill:#D3E4EF;" d="M1070.557,1684.315c-12.888,7.695-25.376,16.726-33.978,29.026
								c-8.602,12.3-12.843,28.399-8.13,42.65c5.968,18.048,24.006,28.789,40.669,37.938c19.727,10.831,40.078,21.868,62.423,24.547
								c23.396,2.806,48.046-3.693,70.194,4.352c-16.823,0.347-29.98,13.815-44.731,21.911
								c-31.409,17.237-70.122,9.829-104.807,0.851c-19.942-5.162-41.146-11.559-54.018-27.641
								c-18.211-22.752-12.522-57.76,5.09-80.979s44.325-37.409,70.166-50.881L1070.557,1684.315z"/>
						</g>
						<g>
							<path style="fill:#D3E4EF;" d="M1803.36,1863.495c-0.061,0.683-0.171,1.365-0.232,2.047
								c-98.129,127.106-311.686,147.842-519.249,41.527c-68.315,14.796-129.704,2.995-132.959-27.938
								c1.89-4.558,3.73-9.117,5.62-13.675l15.102-8.522c-5.057,9.582,0.53,22.139,9.658,27.97
								c9.178,5.783,20.747,6.235,31.512,5.256c30.338-2.777,59.043-15.353,89.383-18.277c33.814-3.252,67.557,5.659,100.265,15.04
								c59.926,17.148,120.159,36.158,182.442,38.987C1661.877,1929.394,1739.804,1907.101,1803.36,1863.495z"/>
						</g>
						<g>
							<path style="fill:#371A45;" d="M1837.734,1804.662c-50.948,170.653-254.998,210.437-409.287,172.707
								c-52.96-11.925-103.698-31.983-151.247-57.256l9.778,1.279c-37.52,7.545-77.319,11.039-114.47-1.751
								c-32.702-11.101-47.172-41.634-27.074-71.567c-0.001,0,14.501,22.376,14.501,22.376c-13.347,1.831-26.802,3.197-40.403,3.506
								c-60.812,2.808-151.071-22.72-145.73-98.708c8.436-62.723,77.966-107.716,134.36-123.096
								c16.439-4.571,33.721-7.223,50.738-8.302c114.147-5.799,227.26,11.876,340.215,21.529
								c10.085,0.935,20.056-1.178,29.167-6.132l34.407-18.169c23.025-11.986,46.191-23.777,69.705-35.004
								c47.316-22.689,95.372-43.351,145.784-58.639c51.456-15.114,106.075-25.356,160.098-14.254
								c7.913,1.696,12.954,9.485,11.257,17.398c-1.697,7.938-9.538,12.984-17.466,11.244c-23.24-4.993-47.876-4.918-72.344-2.04
								c-24.5,2.987-49.021,8.337-73.142,15.725c-48.547,14.717-95.714,35.012-141.523,56.995
								c-23.118,11.038-46.008,22.687-68.816,34.558l-34.128,18.022c-13.555,7.435-29.934,11.013-45.598,9.485
								c-108.787-9.253-217.525-26.115-326.443-21.878c-42.193,0.863-84.902,13.483-118.882,38.69
								c-19.058,14.239-36.699,31.976-44.46,51.885c-8.141,19.158-3.375,40.352,12.923,54.133
								c35.338,30.053,91.396,30.251,136.269,24.024c7.988-1.09,15.349,4.503,16.438,12.491c0.491,3.602-0.388,7.095-2.222,9.923
								c-3.801,6.513-5.859,10.964-3.89,16.557c13.165,18.98,52.427,18.782,74.214,17.947c13.477-0.764,26.988-2.768,40.318-5.592
								c3.247-0.687,6.47-0.253,9.265,1.041C1465.871,1982.682,1731.585,2006.954,1837.734,1804.662L1837.734,1804.662z"/>
						</g>
						<g>
							<path style="fill:#371A45;" d="M1143.013,1845.259c23.622-18.741,54.361-29.387,83.843-27.144
								c-25.806,8.573-46.704,26.228-59.521,49.286c-4.607,8.081-14.893,10.896-22.974,6.288
								C1133.699,1867.931,1133.063,1851.991,1143.013,1845.259L1143.013,1845.259z"/>
						</g>
						<g>
							<path style="fill:#371A45;" d="M1262.71,1896.095c21.362-5.213,43.866-6.548,60.852-22.509
								c-6.491,24.602-30.836,43.147-55.402,47.14C1252.664,1922.755,1247.89,1900.718,1262.71,1896.095L1262.71,1896.095z"/>
						</g>
						<g>
							<path style="fill:#371A45;" d="M1512.399,1988.738c-4.482,0-8.906-2.048-11.782-5.925
								c-4.819-6.501-3.457-15.679,3.047-20.498c32.856-24.363,51.128-73.894,48.877-132.493
								c-2.324-60.439-26.557-116.865-58.936-137.217c-6.85-4.307-8.916-13.352-4.609-20.203c4.307-6.851,13.364-8.914,20.205-4.607
								c41.358,25.996,69.863,89.153,72.622,160.901c2.666,69.295-19.463,126.577-60.708,157.158
								C1518.493,1987.8,1515.431,1988.738,1512.399,1988.738z"/>
						</g>
					</g>
					<g>
						<path style="fill:#371A45;" d="M1607.268,2806.65c-39.49-8.836-77.345-27.622-106.917-55.292
							c-9.726-9.135-18.506-19.128-25.925-29.941c20.199,16.001,42.303,29.049,66.128,38.18
							c23.195,9.219,47.529,14.556,72.08,18.242C1632.253,2781.537,1626.96,2810.256,1607.268,2806.65L1607.268,2806.65z"/>
					</g>
					<g>
						<path style="fill:#371A45;" d="M2067.778,3049.517c-45.705-5.277-85.415-37.796-109.388-75.151
							c26.779,18.248,53.964,32.411,84.454,40.186c9.617,2.571,19.221,4.308,28.811,5.921
							C2090.054,3023.989,2086.396,3050.932,2067.778,3049.517L2067.778,3049.517z"/>
					</g>
					<g>
						<path style="fill:#371A45;" d="M1720.735,2335.034c73.615,106.167,182.561,185.646,307.104,219.124
							c41.262,10.899,84.038,16.446,128.289,18.297c-42.749,12.673-88.94,14.879-133.892,8.132
							C1889.863,2560.107,1762.894,2463.704,1720.735,2335.034L1720.735,2335.034z"/>
					</g>
					<g>
						<path style="fill:#371A45;" d="M1700.358,2699.272c-0.943,0-1.904-0.088-2.866-0.278
							c-130.483-25.874-276.533-146.143-318.926-262.627c-2.769-7.603,1.152-16.011,8.76-18.779
							c7.593-2.759,16.006,1.152,18.779,8.76c38.657,106.211,177.48,220.181,297.09,243.896c7.935,1.577,13.096,9.287,11.523,17.227
							C1713.332,2694.443,1707.209,2699.272,1700.358,2699.272z"/>
					</g>
					<g>
						<path style="fill:#371A45;" d="M2145.06,2944.731c-0.82,0-1.656-0.068-2.49-0.21
							c-107.974-18.462-265.361-96.05-344.36-203.477c-4.79-6.519-3.394-15.693,3.125-20.488c6.514-4.78,15.684-3.398,20.488,3.125
							c74.443,101.235,223.364,174.458,325.689,191.953c7.974,1.362,13.335,8.936,11.972,16.914
							C2158.263,2939.688,2152.067,2944.731,2145.06,2944.731z"/>
					</g>
				</g>
				<g>
					<g>
						<path style="fill:#FFFFFF;" d="M1711.179,1305.885c47.561,100.135,120.731,188.876,215.969,255.87
							c19.428,13.652,39.695,26.399,60.865,38.138c10.281,5.742,20.86,11.22,31.616,16.542
							c32.499,15.864,65.664,28.869,99.263,39.117c28.938,8.902,58.218,15.708,87.549,20.571c35.42,5.891,71.002,8.842,106.398,9.06
							c12.909,0.036,25.781-0.264,38.615-0.9c234.884-12.132,456.87-145.569,569.291-368.237
							c165.676-327.978,30.785-725.24-301.172-887.341c-63.957-31.175-130.603-51.476-197.658-61.343
							c-7.826-1.227-15.72-2.234-23.623-3.076c-21.124-2.394-42.246-3.785-63.311-4.175c-48.721-0.886-97.172,3.524-144.432,12.885
							c-47.257,9.308-93.437,23.617-137.565,42.59c-14.035,6.024-27.869,12.503-41.506,19.493
							c-20.428,10.484-40.345,21.941-59.706,34.538c-96.548,62.438-178.149,150.202-233.315,259.476
							C1623.144,917.756,1627.317,1129.311,1711.179,1305.885z"/>
						<path style="fill:#371A45;" d="M2314.894,1687.012c-0.688,0-1.377,0-2.061-0.003c-35.894-0.222-71.787-3.279-106.689-9.084
							c-29.844-4.949-59.38-11.89-87.788-20.627c-33.931-10.349-67.417-23.545-99.526-39.221
							c-11.831-5.854-22.202-11.279-31.704-16.589c-20.806-11.533-41.338-24.4-61.025-38.237
							c-93.037-65.447-167.925-154.172-216.572-256.582l0,0c-87.734-184.729-85.073-395.547,7.3-578.396
							c53.398-105.769,134.297-195.74,233.95-260.185c18.843-12.261,38.989-23.914,59.863-34.629
							c13.408-6.87,27.407-13.447,41.626-19.548c44.243-19.023,90.649-33.391,137.93-42.703
							c47.715-9.448,96.465-13.772,144.819-12.92c21.045,0.388,42.402,1.797,63.481,4.187c8.267,0.879,16.245,1.917,23.701,3.083
							c68.428,10.071,135.107,30.767,198.174,61.509c161.64,78.931,281.934,215.41,338.726,384.299
							c56.348,167.551,43.301,347.075-36.724,505.503c-108.643,215.181-327.368,356.663-570.83,369.238
							C2339.382,1686.707,2327.062,1687.012,2314.894,1687.012z M1712.829,1305.1c48.374,101.843,122.847,190.078,215.371,255.161
							c19.58,13.765,40.005,26.56,60.698,38.035c9.458,5.283,19.775,10.681,31.543,16.504
							c31.924,15.586,65.234,28.711,98.984,39.006c28.257,8.691,57.632,15.593,87.314,20.515
							c34.717,5.774,70.415,8.813,106.108,9.036c12.759,0.029,25.727-0.269,38.516-0.899
							c242.148-12.507,459.697-153.223,567.749-367.236c79.585-157.549,92.558-336.074,36.528-502.693
							c-56.479-167.956-176.118-303.684-336.87-382.183c-62.725-30.579-129.048-51.162-197.119-61.179
							c-7.412-1.16-15.332-2.19-23.555-3.064c-20.972-2.38-42.217-3.779-63.149-4.165c-48.071-0.898-96.582,3.45-144.043,12.849
							c-47.031,9.263-93.188,23.555-137.197,42.476c-14.141,6.069-28.066,12.61-41.397,19.443
							c-20.767,10.657-40.801,22.246-59.546,34.443c-99.116,64.097-179.57,153.577-232.676,258.767
							C1628.224,911.753,1625.578,1121.399,1712.829,1305.1z"/>
					</g>
					<g>
						<path style="fill:#D3E4EF;" d="M2920.741,1316.029c-112.4,222.694-334.42,356.142-569.302,368.237
							c-12.834,0.652-25.698,0.955-38.589,0.907c-35.406-0.202-70.98-3.179-106.398-9.043
							c-29.332-4.887-58.627-11.674-87.543-20.567c-33.621-10.24-66.77-23.246-99.295-39.113
							c-10.728-5.357-21.306-10.809-31.611-16.533c-21.171-11.753-41.415-24.537-60.853-38.173
							c-95.237-66.996-168.426-155.709-215.98-255.877c-26.137-55.003-44.545-113.448-54.604-173.516
							c47.598,94.534,118.385,178.206,209.24,242.127c19.412,13.691,39.683,26.42,60.854,38.173
							c10.264,5.737,20.842,11.189,31.611,16.533c32.525,15.867,65.674,28.872,99.254,39.128
							c28.958,8.878,58.211,15.679,87.543,20.566c35.417,5.863,71.033,8.827,106.398,9.044c12.932,0.033,25.795-0.269,38.63-0.922
							c234.882-12.096,456.862-145.53,569.302-368.237c65.629-129.9,84.048-270.663,61.8-403.35
							C3011.602,904.71,3018.545,1122.45,2920.741,1316.029z"/>
					</g>
					<g>
						<path style="fill:#371A45;" d="M2314.885,1699.246c-0.693,0-1.392,0-2.085-0.002c-36.577-0.227-73.125-3.34-108.662-9.25
							c-30.376-5.037-60.449-12.102-89.38-21.001c-34.517-10.53-68.609-23.962-101.294-39.922
							c-12.075-5.974-22.622-11.492-32.305-16.902c-21.148-11.724-42.051-24.822-62.095-38.909
							c-94.766-66.66-171.04-157.031-220.586-261.343l0,0c-89.37-188.171-86.665-402.912,7.432-589.162
							c54.37-107.703,136.748-199.319,238.223-264.942c19.165-12.471,39.673-24.333,60.923-35.242
							c13.657-7,27.915-13.696,42.383-19.905c45.029-19.363,92.271-33.987,140.396-43.464
							c48.554-9.619,98.159-14.038,147.402-13.147c21.435,0.393,43.184,1.829,64.639,4.26c8.384,0.891,16.563,1.956,24.214,3.154
							c69.566,10.237,137.451,31.304,201.646,62.598c164.61,80.383,287.119,219.382,344.961,391.399
							c57.397,170.679,44.116,353.547-37.403,514.919c-110.61,219.087-333.286,363.14-581.113,375.94
							C2339.782,1698.938,2327.258,1699.246,2314.885,1699.246z M1723.879,1299.851c47.471,99.941,120.557,186.531,211.362,250.403
							c19.224,13.513,39.272,26.077,59.59,37.341c9.312,5.203,19.453,10.505,31.035,16.238
							c31.289,15.276,63.994,28.164,97.129,38.269c27.764,8.543,56.602,15.318,85.747,20.149
							c34.087,5.669,69.136,8.655,104.185,8.872c12.422,0.056,25.249-0.261,37.832-0.884
							c237.749-12.28,451.357-150.427,557.432-360.532c78.101-154.605,90.83-329.788,35.854-493.279
							c-55.43-164.829-172.852-298.037-330.645-375.088c-61.587-30.022-126.704-50.234-193.53-60.068
							c-7.324-1.147-15.044-2.151-23.062-3.003c-20.684-2.344-41.538-3.721-62.085-4.099c-47.222-0.825-94.829,3.389-141.44,12.62
							c-46.196,9.099-91.528,23.132-134.746,41.714c-13.892,5.962-27.564,12.385-40.649,19.089
							c-20.386,10.466-40.054,21.843-58.447,33.811c-97.324,62.939-176.304,150.771-228.428,254.026
							C1640.871,913.857,1638.283,1119.597,1723.879,1299.851L1723.879,1299.851z"/>
					</g>
					<g>
						<path style="fill:#371A45;" d="M2314.894,1699.839c-0.698,0-1.396,0-2.1-0.002c-36.611-0.227-73.184-3.342-108.755-9.26
							c-30.4-5.039-60.498-12.112-89.453-21.018c-34.551-10.537-68.672-23.984-101.387-39.956
							c-12.085-5.979-22.637-11.501-32.334-16.917c-21.162-11.733-42.085-24.844-62.144-38.943
							c-94.844-66.719-171.191-157.168-220.781-261.572l0,0c-89.448-188.337-86.738-403.269,7.441-589.683
							c54.419-107.795,136.865-199.492,238.428-265.173c19.185-12.48,39.707-24.355,60.977-35.271
							c13.667-7.004,27.939-13.706,42.417-19.922c45.068-19.377,92.349-34.014,140.513-43.501
							c48.594-9.626,98.179-14.067,147.534-13.159c21.45,0.396,43.218,1.831,64.692,4.265c8.389,0.894,16.577,1.958,24.238,3.157
							c69.619,10.247,137.563,31.331,201.812,62.651c164.756,80.452,287.368,219.575,345.264,391.743
							c57.446,170.828,44.155,353.86-37.432,515.373c-110.713,219.277-333.574,363.452-581.616,376.265
							C2339.806,1699.529,2327.272,1699.839,2314.894,1699.839z M1724.416,1299.597c47.427,99.851,120.444,186.357,211.167,250.173
							c19.204,13.501,39.238,26.052,59.536,37.307c9.307,5.198,19.434,10.498,31.011,16.226
							c31.26,15.261,63.931,28.135,97.036,38.232c27.744,8.535,56.553,15.303,85.674,20.132
							c34.053,5.664,69.072,8.645,104.092,8.862c12.393,0.046,25.229-0.261,37.798-0.884
							c237.534-12.268,450.952-150.291,556.934-360.205c78.027-154.463,90.747-329.485,35.82-492.822
							c-55.381-164.678-172.695-297.766-330.342-374.746c-61.533-29.995-126.592-50.188-193.359-60.015
							c-7.319-1.145-15.024-2.148-23.037-3c-20.669-2.341-41.504-3.716-62.031-4.094c-47.246-0.886-94.751,3.384-141.318,12.607
							c-46.157,9.092-91.445,23.113-134.624,41.677c-13.877,5.957-27.539,12.373-40.61,19.072
							c-20.371,10.456-40.024,21.821-58.398,33.782c-97.236,62.881-176.143,150.635-228.223,253.796
							C1641.476,913.97,1638.879,1119.502,1724.416,1299.597L1724.416,1299.597z"/>
					</g>
					<g>
						<path style="fill:#371A45;" d="M1803.48,1448.826c376.658,292.214,922.723,128.35,978.975-337.477
							c38.271-316.921-246.755-597.369-557.683-612.959c-226.298-11.347-452.641,75.204-567.856,416.756
							c0,0-27.352,158.877,10.196,267.697s92.716,208.336,92.716,208.336L1803.48,1448.826z"/>
					</g>
					<g>
						<path style="fill:#220F2D;" d="M2782.436,1111.351c-56.24,465.816-602.317,629.674-978.961,337.492l-8.838-11.696
							c427.757,99.702,873.879-132.048,939.634-602.02C2775.292,919.224,2794.23,1013.548,2782.436,1111.351z"/>
					</g>
					<g>
						<path style="fill:#371A45;" d="M2220.134,1677.314c-34.248,0-68.76-2.39-103.281-7.253l-2.231-0.493
							c-34.585-10.547-68.706-23.994-101.421-39.966c-12.085-5.979-22.637-11.501-32.334-16.917
							c-21.162-11.733-42.085-24.844-62.144-38.943c-94.844-66.719-171.191-157.168-220.781-261.572l0,0
							c-89.448-188.337-86.738-403.269,7.441-589.683c54.419-107.795,136.865-199.492,238.428-265.173l1.265-0.815l1.406-0.545
							c82.344-31.875,176.548-45.413,280.073-40.22c186.225,9.336,371.846,103.249,496.533,251.213
							c112.227,133.174,163.408,294.468,144.116,454.168c-21.021,173.913-101.885,319.453-233.848,420.884
							C2518.815,1630.034,2372.306,1677.314,2220.134,1677.314z M2122.072,1641.201c179.829,25.017,359.585-19.573,493.423-122.437
							c125.581-96.523,202.563-235.244,222.617-401.165c18.305-151.541-30.503-304.878-137.432-431.768
							c-119.551-141.86-297.339-231.892-475.591-240.83c-98.77-4.954-188.467,7.747-266.626,37.742
							c-96.626,62.8-175.068,150.239-226.924,252.954c-90.063,178.271-92.661,383.804-7.124,563.899
							c47.427,99.851,120.444,186.357,211.167,250.173c19.204,13.501,39.238,26.052,59.536,37.307
							c9.307,5.198,19.434,10.498,31.011,16.226C2057.042,1618.396,2089.342,1631.155,2122.072,1641.201z"/>
					</g>
					<g>
						<path style="fill:#FFFFFF;" d="M3081.602,1098.482c0.273,130.664-77.733,240.66-174.263,245.662
							c-96.53,5.002-174.999-96.877-175.271-227.542c-0.018-0.818,0.004-1.687,0.031-2.511
							c0.694-129.561,78.379-238.193,174.231-243.15c74.57-3.869,138.359,56.056,163.66,143.741
							C3077.425,1040.501,3081.537,1068.767,3081.602,1098.482z"/>
					</g>
					<g>
						<path style="fill:#D3E4EF;" d="M3081.602,1098.482c0.273,130.664-77.733,240.66-174.263,245.662
							c-96.53,5.002-174.999-96.877-175.271-227.542c-0.018-0.818,0.004-1.687,0.031-2.511
							c10.64,12.858,27.184,25.208,49.553,19.598c39.177-9.844,109.339-97.51,109.339-97.51s77.564-9.827,178.999-21.497
							C3077.425,1040.501,3081.537,1068.767,3081.602,1098.482z"/>
					</g>
					<g>
						<path style="fill:#371A45;" d="M2900.421,1358.962c-38.984,0-75.864-15.486-107.09-45.076
							c-48.081-45.559-75.752-117.461-75.918-197.268c-0.283-138.149,84.131-254.924,188.178-260.312
							c41.831-2.136,81.499,13.354,114.766,44.878c48.081,45.559,75.752,117.458,75.918,197.266
							c0.288,138.149-84.126,254.924-188.178,260.315C2905.529,1358.896,2902.97,1358.962,2900.421,1358.962z M2913.161,885.415
							c-2.012,0-4.028,0.054-6.055,0.159c-88.691,4.592-160.64,108.21-160.386,230.984c0.146,70.764,25.107,136.58,66.768,176.055
							c27.304,25.872,59.429,38.625,93.096,36.885c88.691-4.595,160.645-108.213,160.386-230.984
							c-0.146-70.767-25.107-136.58-66.768-176.055C2974.542,898.147,2944.567,885.415,2913.161,885.415z"/>
					</g>
					<g>
						
							<ellipse transform="matrix(0.0938 -0.9956 0.9956 0.0938 1563.3523 3971.4053)" style="fill:#FFFFFF;" cx="2963.156" cy="1126.958" rx="188.092" ry="142.185"/>
						<path style="fill:#371A45;" d="M2955.558,1316.719c-17.368,0-34.536-4.202-50.933-12.585
							c-72.739-37.192-105.825-146.863-73.75-244.475c17.881-54.417,52.773-95.762,95.732-113.435
							c31.948-13.142,64.824-11.907,95.078,3.56c72.739,37.192,105.825,146.865,73.75,244.477
							c-17.881,54.414-52.773,95.759-95.728,113.433C2985.075,1313.713,2970.246,1316.719,2955.558,1316.719z M2970.744,941.001
							c-14.199,0-28.54,2.905-42.69,8.731c-41.934,17.251-76.04,57.749-93.574,111.111c-31.514,95.911,0.728,203.538,71.875,239.912
							c29.243,14.954,61.025,16.138,91.909,3.433c41.934-17.254,76.035-57.752,93.57-111.108l1.802,0.591l-1.802-0.591
							c31.514-95.916-0.728-203.543-71.875-239.917C3004.118,945.061,2987.531,941.001,2970.744,941.001z"/>
					</g>
					<g>
						<path style="fill:#D3E4EF;" d="M2828.949,1207.372c-8.88-34.495-8.187-71.549,0.225-106.391
							c26.971,76.947,98.162,107.99,165.085,69.176c43.255-25.063,74.754-73.572,87.74-127.492
							c1.733,4.842,3.242,9.935,4.599,15.164c22.569,87.849-16.807,192.543-87.968,233.833
							C2927.471,1332.953,2851.517,1295.171,2828.949,1207.372z"/>
					</g>
					<g>
						<path style="fill:#371A45;" d="M2957.99,1329.775c-28.555,0-55.723-11.46-78.95-33.381
							c-38.789-36.616-61.875-98.86-61.748-166.497c0.215-113.965,65.747-210.579,146.079-215.369
							c30.864-1.86,60.405,9.634,85.361,33.188c38.789,36.616,61.875,98.86,61.748,166.497l-14.653-0.027l14.653,0.027
							c-0.215,113.965-65.747,210.579-146.079,215.369C2962.258,1329.712,2960.119,1329.775,2957.99,1329.775z M2969.66,943.648
							c-1.509,0-3.022,0.044-4.541,0.134c-65.166,3.887-118.335,87.402-118.521,186.169c-0.112,59.705,19.536,113.96,52.559,145.132
							c18.926,17.861,40.801,26.584,63.496,25.246c65.166-3.887,118.335-87.402,118.521-186.169
							c0.112-59.705-19.536-113.96-52.559-145.132C3010.959,952.363,2990.666,943.648,2969.66,943.648z"/>
					</g>
					<g style="opacity:0.5;">
						<path style="fill:#FFFFFF;" d="M2358.948,664.793c0,0-280.572,3.571-443.161,154.597c-0.171,0.159-0.342,0.318-0.512,0.476
							c-34.192,31.815-59.067,72.156-72.323,116.587c-17.531,58.758-20.893,101.75-22.371,139.704
							c-4.444,115.43,15.371,170.256,15.371,170.256c-64.23-63.234-99.081-133.736-96.346-229.914
							c0.295-9.48,0.955-19.247,1.952-29.252c0.222-2.306,0.494-4.587,0.803-6.882c-0.05-0.024-0.025-0.073,0.038-0.136
							c3.465-20.13,9.031-46.417,17.819-75.56c26.453-87.913,81.971-201.875,196.845-251.757
							C2171.855,559.638,2369.053,653.064,2358.948,664.793z"/>
					</g>
					<g style="opacity:0.5;">
						
							<ellipse transform="matrix(0.9931 -0.1172 0.1172 0.9931 -97.3589 304.5849)" style="fill:#FFFFFF;" cx="2540.993" cy="980.067" rx="89.813" ry="103.167"/>
					</g>
					<g style="opacity:0.5;">
						
							<ellipse transform="matrix(0.9779 -0.209 0.209 0.9779 -191.4002 560.9772)" style="fill:#FFFFFF;" cx="2559.029" cy="1186.257" rx="37.073" ry="42.617"/>
					</g>
				</g>
				<g>
					<path style="fill:#DCE3EA;" d="M1174.257,2888.75l852.925,464.371c24.029,13.083,54.955,4.372,66.821-20.28
						c0.245-0.51,0.486-1.024,0.721-1.542c10.507-23.148,0.975-50.524-21.316-62.743l-853.281-467.723L1174.257,2888.75z"/>
				</g>
				<g>
					<path style="fill:#371A45;" d="M2051.061,3373.818c-10.698,0-21.362-2.646-30.884-7.827l-852.93-464.37
						c-7.017-3.823-9.683-12.563-5.986-19.648l45.874-87.915c1.826-3.491,4.976-6.104,8.745-7.246
						c3.774-1.138,7.837-0.713,11.289,1.172l853.281,467.72c29.043,15.923,41.172,51.787,27.617,81.65l-0.835,1.787
						c-7.3,15.161-20.244,26.362-36.484,31.597C2064.352,3372.798,2057.702,3373.818,2051.061,3373.818z M1193.903,2882.764
						l840.288,457.485c8.418,4.585,18.476,5.527,27.568,2.593c8.525-2.744,15.288-8.555,19.043-16.357l0.571-1.23
						c7.266-16.001,0.669-35.254-15.01-43.853l-840.161-460.527L1193.903,2882.764z"/>
				</g>
				<g>
					<g>
						<path style="fill:#9DA9B9;" d="M1223.1,2817.928c0,77.416-34.435,146.138-87.673,189.364
							c-36.779,29.843-82.545,47.524-132.12,47.524c-101.642,0-187.215-74.388-212.272-175.444
							c-4.933-19.586-7.522-40.198-7.522-61.444c0-34.288,6.74-66.817,18.902-96.221c34.239-82.887,111.313-140.668,200.891-140.668
							c40.54,0,78.54,11.82,111.118,32.48C1179.434,2654.646,1223.1,2730.792,1223.1,2817.928z"/>
					</g>
					<g>
						<path style="fill:#808FA0;" d="M1223.1,2817.928c0,77.416-34.435,146.138-87.673,189.364
							c-8.694-0.049-17.388-0.83-25.936-2.735c-41.907-9.134-76.439-45.863-82.935-88.259c-3.37-21.833,0.098-44.203-2.833-66.085
							c-6.105-45.326-40.003-83.766-81.03-104.036c-40.979-20.319-88.259-24.519-133.977-21.735l-6.301-2.735
							c34.239-82.887,111.313-140.668,200.891-140.668c40.54,0,78.54,11.82,111.118,32.48
							C1179.434,2654.646,1223.1,2730.792,1223.1,2817.928z"/>
					</g>
					<g>
						<path style="fill:#371A45;" d="M1003.307,3070.371c-106.538,0-200.039-77.002-227.373-187.256
							c-5.288-20.991-7.979-42.944-7.979-65.186c0-139.199,105.576-252.446,235.352-252.446c42.143,0,83.447,12.065,119.448,34.897
							c71.489,45.225,115.903,128.589,115.903,217.549C1238.659,2957.129,1133.083,3070.371,1003.307,3070.371z M1003.307,2596.597
							c-112.617,0-204.238,99.292-204.238,221.333c0,19.678,2.373,39.072,7.056,57.637
							c23.896,96.401,104.976,163.691,197.183,163.691c112.617,0,204.238-99.287,204.238-221.328
							c0-78.389-38.867-151.68-101.436-191.26C1075.08,2606.992,1039.538,2596.597,1003.307,2596.597z"/>
					</g>
					<g>
						<path style="fill:#371A45;" d="M954.464,3001.104c-49.927,0-98.281-21.279-136.162-59.917
							c-31.836-32.476-49.399-76.016-49.458-122.603v-0.654c0-138.711,105.181-251.558,234.463-251.558l1.392,0.005
							c77.207,0.449,142.695,56.357,155.625,132.939c2.773,16.416,4.18,33.315,4.18,50.229
							C1164.504,2888.257,1070.28,3001.104,954.464,3001.104z M1003.307,2595.708c-113.106,0-205.127,99.688-205.127,222.222v0.635
							c0.049,38.857,14.634,75.117,41.069,102.085c32.319,32.964,73.237,51.118,115.215,51.118
							c99.639,0,180.703-99.688,180.703-222.222c0-15.283-1.27-30.537-3.77-45.347c-10.552-62.495-63.95-108.12-126.958-108.486
							L1003.307,2595.708z"/>
					</g>
					<g>
						
							<ellipse transform="matrix(0.5 -0.866 0.866 0.5 -1913.1019 2241.4526)" style="fill:#371A45;" cx="984.603" cy="2777.521" rx="97.575" ry="76.697"/>
					</g>
					<g>
						<path style="fill:#FF4545;" d="M1241.025,2939.45c-3.077,3.077-6.203,6.056-9.475,9.036
							c-16.997,15.532-42.005,18.853-62.226,7.961c-127.48-68.625-75.56-193.077-166.017-233.763
							c-93.437-40.051-203.04-27.401-207.094-87.527c-0.732-10.501,2.296-20.905,7.424-30.087
							c77.563-140.179,199.084-166.896,305.22-130.85C1284.691,2533.906,1418.423,2765.715,1241.025,2939.45z"/>
					</g>
					<g>
						<path style="fill:#E52E2E;" d="M1241.025,2939.45c-3.077,3.077-6.203,6.056-9.475,9.036
							c-16.997,15.532-42.005,18.853-62.226,7.961c-127.48-68.625-75.56-193.077-166.017-233.763
							c-93.437-40.051-203.04-27.401-207.094-87.527c-0.732-10.501,2.296-20.905,7.424-30.087
							c77.563-140.179,199.084-166.896,305.22-130.85l-7.375,5.275c-67.794-3.565-134.269,47.964-147.75,114.488
							c-3.956,19.635-3.077,42.054,10.159,57.097c16.363,18.609,44.691,19.342,67.208,29.648
							c32.481,14.849,51.432,49.087,62.861,82.887c11.429,33.799,17.779,69.797,35.558,100.714
							C1152.668,2904.576,1195.113,2933.051,1241.025,2939.45z"/>
					</g>
					<g style="opacity:0.5;">
						<path style="fill:#FFFFFF;" d="M1108.856,2474.22c-70.152-23.825-147.016-20.195-213.476,25.459
							c60.447-31.441,127.345-31.764,189.054-10.806c175.835,59.686,309.567,291.495,132.169,465.23
							c-2.251,2.252-4.592,4.427-6.934,6.613c7.972-2.281,15.492-6.392,21.88-12.23c3.273-2.979,6.399-5.959,9.475-9.036
							C1418.423,2765.715,1284.691,2533.906,1108.856,2474.22z"/>
					</g>
					<g>
						<path style="fill:#371A45;" d="M1194.704,2977.471c-11.074,0-22.193-2.666-32.344-8.135
							c-73.931-39.8-92.363-98.804-107.173-146.211c-12.393-39.673-22.183-71.006-57.891-87.075
							c-33.159-14.209-69.565-21.689-101.689-28.291c-59.409-12.212-110.713-22.754-114.019-71.636
							c-0.854-12.539,2.329-25.737,9.204-38.164c59.482-107.52,150.674-161.489,256.655-151.841
							c120.899,10.947,237.637,105.034,277.578,223.711c35.405,105.2,5.718,208.018-83.594,289.507
							C1228.346,2971.274,1211.579,2977.471,1194.704,2977.471z M1023.986,2474.351c-84.917,0-158.037,48.291-207.549,137.798l0,0
							c-4.141,7.48-6.079,15.083-5.61,21.997c1.719,25.405,33.916,33.242,90.679,44.907c33.486,6.88,71.445,14.678,107.573,30.166
							c47.969,21.582,61.24,64.072,74.082,105.166c14.59,46.709,29.683,95.01,93.091,129.15c14.678,7.896,32.93,5.552,45.425-5.85
							c80.21-73.184,107.051-164.99,75.576-258.511c-36.411-108.179-142.578-193.921-252.446-203.872
							C1037.795,2474.668,1030.846,2474.351,1023.986,2474.351z M803.615,2605.054h0.049H803.615z"/>
					</g>
				</g>
			</g>
		</g>
		<g>
			<path style="fill:#371A45;" d="M1272.096,3655.571c-8.027,0-15.889-2.339-22.734-6.763
				c-16.592-10.713-23.379-30.601-16.885-49.482c24.521-71.338,18.711-129.766,13.462-181.323
				c-19.556-107.827,24.458-211.665,112.959-270.42c-21.045-30.894-23.428-71.514-4.536-105.239l8.125-14.507l-106.597-58.032
				c-0.898,0.84-1.782,1.655-2.661,2.456c-16.05,14.644-36.836,22.71-58.525,22.71c-0.23,0-0.459,0-0.693-0.005
				c-48.184,59.17-117.173,92.905-190.703,92.905c-114.6,0-215.083-82.466-244.36-200.547c-5.63-22.373-8.491-45.742-8.491-69.399
				c0-47.505,11.646-93.745,33.809-134.663c-12.148-12.388-18.906-27.783-20.137-45.957c-1.084-15.903,2.842-32.441,11.353-47.822
				c63.066-113.994,160.171-171.143,273.555-160.791c78.569,7.114,158.296,48.208,217.163,111.152
				c31.367-41.533,64.077-82.549,95.806-122.339c37.798-47.393,76.768-96.26,113.335-145.859
				c-88.042-65.293-138.13-123.994-148.979-174.634c-4.077-19.023-3.662-43.76,1.23-73.613
				c-6.816-11.231-12.109-22.976-15.776-35.007c-3.213-10.549-4.795-21.975-4.727-34.092c-9.438-4.304-18.848-8.853-28.13-13.596
				c-29.771,5.237-71.641,9.426-112.148-4.514c-23.638-8.027-40.2-24.648-45.859-44.763c-0.342,0.007-0.679,0.017-1.016,0.024
				c-41.191,1.907-102.217-8.599-137.285-44.521c-19.18-19.649-28.276-44.861-26.304-72.91c0.024-0.369,0.064-0.737,0.112-1.106
				c9.356-69.561,82.813-120.112,147.1-137.644c16.797-4.67,35.073-7.668,54.233-8.887c86.768-4.419,173.413,4.548,257.192,13.215
				c26.221,2.712,53.276,5.51,79.917,7.852c55.147-81.404,113.281-144.246,168.516-182.08
				c22.827-15.644,56.255-20.029,101.426-13.154c-32.612-41.03-60.332-85.432-82.7-132.536
				c-14.194-29.878-26.338-60.943-36.094-92.334c-3.862-12.456-7.417-25.164-10.566-37.773c-3.14-12.62-5.952-25.449-8.354-38.14
				c-3.604-19.053-6.426-38.457-8.384-57.678c-1.626-16.001-2.7-32.261-3.184-48.328c-3.428-113.56,22.226-227.956,74.199-330.828
				c28.657-56.76,65-109.402,108.022-156.46c19.414-21.24,40.352-41.477,62.222-60.149c23.438-20.01,48.442-38.638,74.312-55.369
				l1.284-0.828c0.191-0.124,0.386-0.244,0.586-0.361c19.258-12.441,39.653-24.199,60.62-34.958
				c13.98-7.168,28.613-14.04,43.496-20.432c46.191-19.858,94.653-34.863,144.033-44.59c49.839-9.873,100.698-14.429,151.24-13.486
				c21.997,0.405,44.316,1.878,66.343,4.375c8.599,0.913,17.041,2.014,24.971,3.254c71.294,10.493,140.913,32.105,206.772,64.211
				c169.009,82.529,294.79,225.259,354.189,401.899c7.197,21.409,13.442,43.569,18.594,65.982
				c9.097,6.099,17.803,13.074,25.952,20.796c21.958,20.803,40.01,46.577,53.662,76.621c27.153,40.088,42.031,92.978,41.929,149.143
				c-0.186,98.762-47.881,189.131-116.27,220.891c-26.338,21.199-56.065,34.697-86.592,39.382
				c-67.471,112.61-164.146,202.935-281.479,263.308c67.153,30.898,132.969,66.658,196.128,106.58
				c2.988,1.311,5.713,3.037,8.14,5.149c86.235,55.198,167.217,118.027,240.708,186.76c39.424,36.872,71.357,78.684,94.902,124.275
				l0,0c52.148,100.977,52.324,200.986,0.444,254.795c-23.76,24.639-56.616,37.666-95.024,37.666
				c-32.183,0-67.363-8.887-104.565-26.416c-17.349-8.174-34.502-18.101-52.432-30.352c-34.966-23.892-69.219-48.032-102.344-71.377
				c-85.396-60.186-166.445-117.305-246.382-161.206c-5.757,34.717-12.983,69.683-20.854,100.85
				c12.881,21.099,16.733,46.416,10.513,70.718c-6.216,24.292-21.602,44.546-43.33,57.031c-1.753,1.006-3.564,1.968-5.43,2.871
				c-53.198,157.578-133.643,320.303-245.752,497.158c-36.138,57.271-80.283,121.807-131.445,192.183
				c5.229,0.181,10.474,0.508,15.728,0.986c127.485,11.548,250.537,110.615,292.588,235.557
				c37.749,112.178,6.362,221.567-88.384,308.018c-16.06,14.644-36.846,22.705-58.53,22.705c-0.23,0-0.459,0-0.688-0.005
				c-48.188,59.17-117.178,92.91-190.703,92.91c-114.6,0-215.083-82.466-244.365-200.542c-5.625-22.354-8.486-45.723-8.486-69.404
				c0-23.413,2.847-46.626,8.467-69.199l-131.826-71.772l-10.649,19.014c-14.292,25.527-39.287,43.398-67.622,49.189
				c-1.685,125.566-81.938,227.734-203.218,256.772c-48.608,15.815-103.623,33.867-158.125,85.166
				C1293.107,3651.431,1282.804,3655.571,1272.096,3655.571z M1252.985,2930.791c2.857,0,5.732,0.698,8.364,2.129l133.428,72.646
				c4.107,2.236,7.149,6.025,8.447,10.522c1.294,4.492,0.737,9.316-1.548,13.398l-16.777,29.956
				c-14.722,26.284-9.57,59.019,12.524,79.604c4.092,3.813,6.118,9.351,5.444,14.907c-0.674,5.552-3.96,10.449-8.843,13.174
				c-87.393,48.789-131.958,145.054-113.535,245.249c0.083,0.459,0.151,0.923,0.2,1.392c5.352,52.573,12.017,118.003-15.117,196.934
				c-1.216,3.545-0.176,6.797,2.778,8.706c2.852,1.836,6.187,1.44,8.77-0.996c60.454-56.895,122.28-77.012,171.953-93.174
				c0.454-0.151,0.918-0.278,1.382-0.391c109.351-25.884,180.435-120.4,176.895-235.19l-0.166-2.227
				c-0.259-4.722,1.401-9.346,4.604-12.822c3.203-3.477,7.676-5.513,12.402-5.64c22.979-0.615,44.185-13.374,55.342-33.291
				l19.101-34.102c4.683-8.364,15.225-11.401,23.638-6.821l159.204,86.68c7.285,3.97,10.786,12.51,8.379,20.449
				c-7.153,23.569-10.776,48.081-10.776,72.852c0,20.801,2.505,41.299,7.446,60.918c25.41,102.49,111.929,174.028,210.405,174.028
				c65.527,0,127.021-31.548,168.711-86.558c3.779-4.985,9.907-7.603,16.162-6.787c2.285,0.293,4.478,0.439,6.519,0.439
				c12.939,0,25.352-4.819,34.941-13.564c83.872-76.523,111.856-172.769,78.799-270.996
				c-37.832-112.407-148.257-201.509-262.568-211.865c-15.61-1.406-31.123-1.338-46.118,0.21c-6.88,0.732-13.55-2.715-16.992-8.726
				c-3.438-6.016-3.003-13.491,1.113-19.067c59.766-81.04,110.664-154.771,151.289-219.15
				c112.349-177.227,192.354-339.761,244.609-496.919c1.66-4.985,5.469-8.965,10.386-10.835c2.983-1.133,5.786-2.451,8.335-3.916
				c13.462-7.734,23.003-20.288,26.855-35.352c4.307-16.841,0.835-34.448-9.531-48.311c-3.188-4.268-4.258-9.751-2.91-14.902
				c9.858-37.725,18.814-82.021,25.22-124.78l0.356-3.711c0.547-5.791,3.94-10.933,9.053-13.716
				c5.112-2.783,11.274-2.847,16.436-0.166c89.102,46.27,178.027,108.936,272.173,175.283
				c33.022,23.276,67.168,47.344,101.924,71.094c16.377,11.187,31.948,20.21,47.607,27.588
				c32.495,15.313,62.656,23.076,89.644,23.076c29.087,0,52.578-9.072,69.829-26.963c41.299-42.827,38.804-127.007-6.343-214.434
				l0,0c-21.709-42.031-51.221-80.645-87.715-114.778c-72.304-67.622-152.031-129.416-236.958-183.667
				c-0.884-0.564-1.714-1.206-2.48-1.917c-1.011-0.403-1.983-0.898-2.905-1.479c-72.842-46.138-149.297-86.616-227.246-120.31
				c-6.367-2.751-10.503-9.001-10.557-15.935c-0.049-6.934,3.994-13.242,10.317-16.089
				c128.853-57.976,234.121-152.402,304.419-273.066c2.837-4.868,7.842-8.074,13.452-8.611c27.427-2.629,54.585-14.446,78.54-34.175
				c1.226-1.011,2.583-1.848,4.033-2.493c57.334-25.403,97.49-103.516,97.656-189.956c0.093-49.744-12.93-96.106-36.655-130.549
				c-0.605-0.876-1.128-1.807-1.563-2.776c-11.851-26.465-27.476-48.994-46.445-66.968c-8.267-7.834-17.197-14.714-26.538-20.447
				c-4.053-2.488-6.919-6.521-7.939-11.169c-5.166-23.591-11.616-46.946-19.17-69.412
				c-56.392-167.695-175.845-303.215-336.362-381.599c-62.612-30.525-128.789-51.072-196.68-61.062
				c-7.524-1.179-15.391-2.202-23.54-3.069c-21.054-2.388-42.265-3.784-63.164-4.17c-48.052-0.889-96.406,3.438-143.813,12.827
				c-46.978,9.255-93.066,23.523-136.997,42.412c-14.16,6.081-28.071,12.612-41.343,19.417
				c-20.122,10.325-39.678,21.614-58.12,33.55c-0.205,0.134-0.415,0.264-0.63,0.391l-0.728,0.466
				c-24.556,15.881-48.306,33.579-70.571,52.588c-20.781,17.737-40.669,36.963-59.116,57.141
				c-40.864,44.705-75.391,94.71-102.612,148.625c-49.346,97.678-73.711,206.253-70.459,313.994
				c0.459,15.237,1.479,30.659,3.027,45.835c1.855,18.232,4.531,36.641,7.949,54.717c2.28,12.041,4.946,24.214,7.93,36.184
				c2.983,11.968,6.357,24.033,10.029,35.857c9.263,29.807,20.796,59.314,34.277,87.698
				c28.354,59.707,65.786,114.858,111.25,163.926c5.317,5.737,6.177,14.304,2.114,20.986c-4.057,6.68-12.051,9.871-19.599,7.778
				c-75.938-20.933-109.517-13.245-124.321-3.108c-53.457,36.619-110.449,99.211-164.805,181.008
				c-3.237,4.873-8.696,7.805-14.546,7.815c-1.992-0.022-4.204-0.066-6.328-0.261c-28.677-2.451-57.891-5.471-86.138-8.393
				c-82.456-8.53-167.729-17.334-251.592-13.086c-16.523,1.05-32.388,3.643-46.938,7.686
				c-55.093,15.024-114.365,56.899-121.626,108.018c-1.143,18.059,4.248,32.93,16.47,45.449
				c25.249,25.859,73.935,35.71,111.035,33.997c5.137-0.125,10.327-0.408,16.27-0.889c5.078-0.378,10.073,1.414,13.696,4.988
				c3.623,3.574,5.513,8.552,5.171,13.63c-0.835,12.439,8.462,23.499,24.268,28.867c27.046,9.304,58.887,9.983,100.303,2.149
				c3.877-0.733,7.866-0.139,11.353,1.682c13.892,7.256,28.145,14.068,42.358,20.244c6.958,3.022,11.177,10.181,10.444,17.729
				c-1.206,12.495-0.317,23.391,2.705,33.316c3.33,10.935,8.462,21.638,15.249,31.819c2.515,3.77,3.467,8.374,2.656,12.837
				c-5.083,27.988-5.991,51.099-2.617,66.831c9.404,43.911,61.079,100.596,149.424,163.926c3.784,2.715,6.333,6.826,7.08,11.426
				c0.742,4.6-0.376,9.302-3.11,13.076c-39.961,55.083-82.993,109.038-124.604,161.221c-34.683,43.491-70.547,88.457-104.35,133.735
				l-3.364,4.746c-3.154,4.434-8.188,7.148-13.623,7.354c-5.444,0.127-10.659-2.139-14.126-6.333
				c-54.038-65.283-131.812-108.379-208.037-115.283c-98.643-8.96-183.828,41.768-239.766,142.886
				c-5.244,9.473-7.681,19.326-7.056,28.501c0.879,12.998,6.299,22.222,17.568,29.917c7.72,5.264,9.937,15.664,5.044,23.623
				c-23.687,38.506-36.206,83.271-36.206,129.453c0,20.781,2.505,41.274,7.451,60.918c25.405,102.49,111.924,174.028,210.4,174.028
				c65.537,0,127.026-31.548,168.706-86.553c3.789-4.99,9.951-7.607,16.167-6.787c2.285,0.293,4.483,0.439,6.524,0.439
				c12.939,0,25.347-4.814,34.932-13.564c3.384-3.086,6.987-6.533,11.011-10.532
				C1244.01,2932.534,1248.473,2930.791,1252.985,2930.791z M1690.378,2933.086c-2.905,0-5.81-0.723-8.433-2.168l-79.927-43.96
				c-7.817-4.297-11.147-13.789-7.734-22.031c9.541-23.027,11.753-48.623,12.617-68.35c0.151-3.428,1.304-6.733,3.32-9.507
				c71.196-98.174,161.938-181.68,262.412-241.499c6.367-3.799,14.443-3.154,20.146,1.587c5.703,4.746,7.788,12.573,5.215,19.526
				c-10.264,27.72-22.69,55.796-36.943,83.457c-20.659,40.151-45.317,78.984-66.714,111.68c-0.005,0.005-0.01,0.01-0.01,0.015
				c-5.508,8.394-11.069,16.777-16.646,25.181c-18.003,27.124-36.616,55.171-53.477,83.975c-8.398,14.17-14.092,30.43-16.509,47.104
				c-0.825,5.679-4.38,10.596-9.517,13.154C1695.719,2932.476,1693.048,2933.086,1690.378,2933.086z M1631.945,2863.477
				l46.455,25.552c3.804-12.612,9.077-24.722,15.649-35.801c17.309-29.57,36.201-58.037,54.468-85.566
				c5.542-8.35,11.069-16.68,16.543-25.024c21.948-33.54,45-69.902,64.873-108.521c4.858-9.424,9.487-18.892,13.882-28.374
				c-76.435,53.081-145.576,120.576-202.207,197.686C1640.651,2821.094,1638.454,2842.28,1631.945,2863.477z M1779.694,2752.236
				h0.049H1779.694z"/>
		</g>
	</g>
</g>
</svg>
